# xmcd
#
# Track frame offsets:
#	182
#	14457
#	26312
#	38927
#	54102
#	66927
#	82807
#	99532
#	114217
#	130972
#	142457
#	155720
#	170155
#	185947
#	200787
#	210160
#	231340
#	246307
#
# Disc length: 3483
#
# Revision: 1
# Processed by: cddbd v1.5.1PL0 Copyright (c) Steve Scherf et al.
# Submitted via: CDex 1.40Release
# Normalized: r0:TDELIM( - )
#
DISCID=060d9912
DTITLE=Various Artist - 18 Country Ladies
DYEAR=1997
DGENRE=Country
TTITLE0=Pam Tillis - Shake The Sugar Tree
TTITLE1=Martina McBride - My Baby Loves ME
TTITLE2=Mila Mason - That's Enough Of That
TTITLE3=The Forester Sisters - Men
TTITLE4=Holly Dunn - You Really Had Me Going
TTITLE5=Linda Davis - Some Things Are Meant To Be
TTITLE6=Janie Fricke - Always Have, Always Will
TTITLE7=Emmylou Harris - Heartbreak Hill
TTITLE8=Carlene Carter - I Fell In Love
TTITLE9=Patty Loveless - Timber I'm Falling In Love
TTITLE10=Lorrie Morgan - Except For Monday
TTITLE11=Charley McClain - Radio Heart
TTITLE12=Tanya Tucker - Soon
TTITLE13=Cristy Lane - One Day At  A Time
TTITLE14=Linda Ronstadt - Rambler Gambler
TTITLE15=K.T. Oslin - Hold Me
TTITLE16=Sylvia - Nobody
TTITLE17=Louise Mandrell - I Wanna Say Yes
EXTD=YEAR: 1997 ID3G: 2
EXTT0=
EXTT1=
EXTT2=
EXTT3=
EXTT4=
EXTT5=
EXTT6=
EXTT7=
EXTT8=
EXTT9=
EXTT10=
EXTT11=
EXTT12=
EXTT13=
EXTT14=
EXTT15=
EXTT16=
EXTT17=
PLAYORDER=
